<?xml version="1.0" standalone="no"?>
<!DOCTYPE svg PUBLIC "-//W3C//DTD SVG 1.1//EN" "http://www.w3.org/Graphics/SVG/1.1/DTD/svg11.dtd">
<svg width="612px" height="612px" version="1.1" xmlns="http://www.w3.org/2000/svg" xmlns:xlink="http://www.w3.org/1999/xlink" xml:space="preserve" style="fill-rule:evenodd;clip-rule:evenodd;stroke-linejoin:round;stroke-miterlimit:1.41421;">
    <g>
        <g id="Layer_1">
            <g id="Me">
                <g>
                    <path d="M407.798,141.801C422.048,148.066 433.702,159.071 446.654,167.706L449.579,174.391L446.654,199.46C446.654,199.46 442.476,201.967 442.058,201.967C441.641,201.967 418.661,197.789 418.661,197.789L422.421,204.056L419.496,218.68L417.407,204.892C417.407,204.892 410.722,197.371 410.304,197.371C409.886,197.371 406.126,197.371 406.126,197.371L405.29,208.234L397.769,201.132L400.694,221.187L412.811,225.365L402.783,227.872L403.619,238.318L397.769,242.914C404.027,258.905 399.433,249.798 414.065,268.819L403.619,274.668L411.975,295.559L406.544,293.052L402.365,293.888L405.708,312.689C393.159,330.943 401.22,323.39 381.057,334.835L381.474,331.074L361.419,337.759L368.104,331.074C368.105,331.074 355.987,335.67 356.405,335.67C356.823,335.67 370.611,326.06 370.611,326.06L351.809,330.656C317.311,310.943 330.553,318.051 312.534,308.512L311.281,313.943L327.575,318.957L332.589,326.06C332.59,326.06 329.665,331.492 330.082,331.492C330.5,331.492 339.692,342.773 339.692,342.773L362.672,358.232C358.862,384.748 366.921,410.541 375.902,435.148C365.047,440.368 353.772,444.618 342.416,448.601C335.634,450.753 333.544,451.498 325.456,453.488C320.306,454.696 322.393,454.258 319.218,454.897C316.644,453.259 317.831,453.864 315.736,452.933C310.532,450.852 303.497,450.104 291.434,449.566C289.495,449.48 287.489,449.404 285.078,449.323C283.971,449.285 280.155,449.163 279.383,449.137C276.471,449.039 274.691,448.962 273.507,448.877C272.433,448.783 265.832,448.294 264.318,447.87C263.524,447.647 261.231,445.61 260.308,445.005C256.051,442.364 251.444,440.371 246.879,438.345C246.378,438.126 246.137,438.02 245.886,437.91C239.611,435.16 236.725,433.651 234.244,431.702C230.706,428.923 227.207,426.328 222.082,422.636C221.527,422.236 220.962,421.829 220.213,421.291C220.286,421.343 218.779,420.261 218.362,419.961C201.939,408.155 194.662,401.951 187.977,393.038C187.676,392.636 187.04,391.57 186.086,389.8C185.823,389.311 183.353,384.619 182.513,383.082C180.635,379.516 178.464,376.129 176.033,372.92C175.473,368.294 175.884,371.525 174.653,363.246C173.639,356.887 169.918,351.269 167.551,345.28L201.811,323.135L210.168,290.546L203.065,286.367L228.97,274.25L235.655,278.429L240.669,275.504L244.011,265.894L249.861,262.133C272.801,265.334 262.125,262.628 282.033,269.654C284.272,262.939 283.523,267.194 281.615,256.702L268.663,247.092L268.245,236.228L263.231,239.989C263.801,228.036 262.496,233.906 267.409,222.441L257.8,230.797C269.722,215.246 262.78,220.77 277.437,212.83C277.437,212.83 264.067,198.207 264.484,198.207C264.903,198.207 257.8,178.57 257.8,178.57L277.855,162.692C284.863,156.83 291.861,150.955 298.92,145.155C300.633,143.748 302.639,142.446 304.242,140.924C306.293,138.976 311.853,129.409 313.788,126.342C356.601,124.848 360.478,120.997 407.798,141.801Z" style="fill:black;fill-rule:nonzero;"/>
                </g>
                <g>
                    <path d="M279.944,211.786L267.409,197.163L260.724,178.57L284.122,160.395L307.102,141.801L315.041,128.222L349.093,127.177L406.961,143.682L443.312,167.915L447.281,173.555L445.192,197.998L441.014,199.669L419.914,195.073L411.766,185.046L408.006,183.166C408.006,183.166 415.109,177.316 414.9,177.316C414.691,177.316 423.674,175.645 423.674,175.645L431.195,178.779L432.449,184.419L433.493,177.942L424.928,172.302L416.153,171.884L407.797,178.779L402.156,185.046L391.92,201.132L387.324,206.563L373.954,209.07C373.954,209.07 364.135,209.906 364.344,209.906C364.553,209.906 347.004,205.937 347.004,205.937L333.216,202.803L323.815,199.46L327.784,202.385L317.965,204.265L297.074,207.19L279.944,211.786Z" style="fill:white;fill-rule:nonzero;"/>
                </g>
                <g>
                    <path d="M297.493,224.947L291.225,216.8L282.033,216.382C282.033,216.382 276.184,216.591 277.019,217.218C277.855,217.844 270.752,236.437 270.752,236.437L271.588,246.674L282.66,254.194L287.465,257.955L292.897,258.373C292.897,258.373 299.581,249.807 299.373,250.016C299.164,250.225 299.373,237.691 299.373,237.691L297.493,224.947Z" style="fill:white;fill-rule:nonzero;"/>
                </g>
                <g>
                    <path d="M348.675,230.275L344.131,233.252C344.131,233.252 342.252,235.915 342.408,235.915C342.564,235.915 342.878,241.556 342.878,241.556L345.229,244.063L348.519,245.003L353.532,244.533L355.883,241.556C355.883,241.556 357.293,238.109 357.293,237.952C357.293,237.795 356.823,234.348 356.823,234.348L352.906,231.214L348.675,230.275Z" style="fill:white;fill-rule:nonzero;"/>
                </g>
                <g>
                    <path d="M395.837,196.901L399.44,191.104L401.164,188.127L405.081,193.611L406.021,196.274L404.611,205.362L395.837,196.901Z" style="fill:white;fill-rule:nonzero;"/>
                </g>
                <g>
                    <path d="M402.417,187.03L406.804,183.74L411.766,186.404L419.182,195.491L413.699,191.261L421.376,204.109L419.653,213.039C419.653,213.039 417.302,202.855 417.146,202.855C416.989,202.855 410.252,195.648 410.252,195.648L407.118,196.274L406.021,193.768L402.417,187.03Z" style="fill:white;fill-rule:nonzero;"/>
                </g>
                <g>
                    <path d="M284.539,258.373L287.882,259.418L293.314,260.671L299.377,251.741L301.252,251.741L299.377,274.459L283.704,297.805L285.793,297.805L297.91,291.59L297.074,301.252L302.924,302.819L306.266,302.819L308.356,310.81L299.377,329.194L278.481,313.526L270.751,304.542L267.201,292.791L277.019,285.741L284.539,272.788L286.002,266.103C286.002,266.103 284.331,258.373 284.539,258.373Z" style="fill:white;fill-rule:nonzero;"/>
                </g>
                <g>
                    <path d="M394.672,231.863L396.41,228.968L398.654,228.244L401.043,229.33L402.417,234.107L402.417,237.582L398.654,240.477L394.672,231.863Z" style="fill:white;fill-rule:nonzero;"/>
                </g>
                <g>
                    <path d="M394.844,198.207C400.133,207.022 396.012,199.489 398.605,223.694L385.026,226.41L392.756,228.081C394.399,238.646 394.298,242.531 400.485,253.359C403.566,258.753 408.006,263.248 411.766,268.192L393.8,273.415C393.8,273.415 391.71,272.788 391.71,272.579C391.71,272.37 379.594,274.459 379.594,274.459L379.176,257.955L376.878,274.459C358.055,292.01 367.393,285.14 349.72,296.186C345.359,292.686 327.102,277.861 320.89,273.415C318.346,271.593 315.598,270.072 312.952,268.401L312.952,227.872L315.249,223.903C315.249,223.903 317.548,223.485 317.757,223.276C317.965,223.068 322.979,227.037 322.979,227.037L322.144,215.338L328.62,223.068L321.308,206.355L333.216,206.981C333.216,206.981 334.261,204.892 334.052,204.892C333.842,204.892 354.316,209.697 354.316,209.697C374.25,212.717 363.521,212.567 386.488,208.652C392.887,202.835 390.019,206.25 394.844,198.207ZM364.344,242.496C363.156,244.589 364.045,243.007 362.604,245.629C362.095,246.554 361.647,247.541 360.792,248.206C360.296,248.59 358.958,249.346 358.537,249.6C356.53,250.812 356.796,250.655 355.099,251.74L362.62,248.136L364.344,242.496ZM371.707,219.777L372.178,225.104L370.297,227.141L331.91,227.298C333.906,227.853 335.791,228.906 337.851,229.231C339.36,229.47 340.991,229.317 342.503,229.338C345.275,229.377 345.588,229.4 348.049,229.491C342.377,233.207 344.557,230.995 341.154,235.758L341.468,241.399L343.975,245.002C350.582,247.274 347.235,246.946 354.003,246.1C357.016,243.086 358.223,242.887 358.547,238.109C358.647,236.626 358.024,235.184 357.763,233.722L353.062,229.961L371.707,229.178L374.372,225.261L371.707,219.777Z" style="fill:white;fill-rule:nonzero;"/>
                </g>
                <g>
                    <path d="M319.636,206.354L323.606,213.457L320.682,213.039L321.517,223.902L316.921,220.143L312.116,224.53L311.49,269.654C331.939,281.757 318.678,273.176 349.093,298.484C369.278,286.198 359.333,293.479 378.55,276.13L382.31,277.383C382.31,277.383 397.978,275.921 397.978,276.13C397.978,276.339 402.156,275.086 402.156,275.086L409.469,292.217L405.917,290.545L400.276,292.008L404.036,312.063C392.796,328.512 399.856,322.071 383.146,331.701L382.728,328.567L366.642,334.207L371.029,329.611L367.268,329.611L374.163,324.597L352.227,328.358L312.952,306.005L310.027,309.974L308.356,300.364L303.551,301.826L298.955,299.737L299.79,289.292L286.629,296.186C291.295,289.292 297.736,283.31 300.626,275.504C305.312,262.847 301.181,234.833 300.208,223.485L291.225,214.71L281.197,214.71L275.766,216.591L268.872,234.557L264.693,237.273C264.945,235.389 264.552,233.333 265.072,231.489C265.401,230.325 265.937,228.961 266.261,227.854C267.012,225.289 267.735,222.716 268.454,220.143C268.454,220.143 278.481,213.875 278.481,213.666C278.481,213.457 297.702,208.234 297.702,208.234L319.636,206.354ZM383.153,292.865C383.006,292.965 382.869,293.08 382.713,293.163C380.531,294.322 378.216,295.236 375.938,296.186L374.372,293.731C374.372,293.731 371.864,296.865 371.864,297.021C374.939,298.619 378.109,300.043 381.252,301.506C383.334,302.472 382.389,302.034 384.085,302.819L383.153,292.865ZM397.873,292.791L391.606,293.104L393.8,301.252L397.873,297.805L397.873,292.791ZM386.906,286.68L376.251,294.044C376.251,294.044 376.251,288.247 376.095,288.247C375.938,288.247 367.634,296.186 367.634,296.186L359.643,297.805L367.32,297.335L374.372,292.321L375.782,295.298L385.182,290.128L386.123,292.948L393.8,292.321C395.294,292.318 396.794,292.18 398.288,292.269C399.127,292.318 398.543,292.367 398.97,292.321C397.654,292.232 396.35,291.951 395.053,291.694L393.8,290.441C392.59,290.936 391.378,291.429 390.159,291.902C389.763,292.056 389.365,292.205 388.964,292.348C388.575,292.486 388.675,292.48 388.472,292.48C387.991,290.537 387.439,288.611 386.906,286.68Z" style="fill:white;fill-rule:nonzero;"/>
                </g>
            </g>
        </g>
    </g>
</svg>
